<svg width="37" height="37" viewBox="0 0 37 37" fill="none" xmlns="http://www.w3.org/2000/svg">
<path d="M14.4243 6.97857L14.4242 6.97873L13.8232 8.05618C13.8231 8.05637 13.823 8.05655 13.8229 8.05673C13.7854 8.12408 13.7483 8.19092 13.7115 8.25719C13.1652 9.24098 12.6876 10.1012 11.9178 10.6868L11.9157 10.6884C11.1344 11.2806 10.185 11.4936 9.11921 11.7326C9.0481 11.7486 8.97647 11.7647 8.90434 11.781C8.90416 11.781 8.90399 11.781 8.90381 11.7811L7.73834 12.045L7.73778 12.0451C5.43212 12.5662 3.87764 12.9224 2.81631 13.3408C1.78421 13.7477 1.60522 14.0657 1.53731 14.2833C1.4649 14.5173 1.44047 14.9151 2.05845 15.8969C2.68725 16.8959 3.75093 18.1458 5.32018 19.9798L5.3209 19.9807L6.11556 20.9108C6.11582 20.9111 6.11607 20.9114 6.11633 20.9117C6.16464 20.9682 6.21263 21.024 6.26022 21.0795C6.98963 21.9289 7.62489 22.6687 7.91374 23.6047C8.20374 24.5323 8.10798 25.5079 7.9962 26.6465C7.98893 26.7206 7.98159 26.7953 7.97429 26.8708L7.97417 26.8721L7.8533 28.11C7.85327 28.1103 7.85325 28.1106 7.85322 28.1109C7.61667 30.5577 7.45859 32.2286 7.51227 33.4291C7.56582 34.6268 7.81784 34.9132 7.97648 35.0336C8.10843 35.1335 8.39292 35.2963 9.46737 34.9882C10.5614 34.6746 12.0205 34.0079 14.1793 33.0142L14.1799 33.014L15.2702 32.5127C15.2706 32.5125 15.271 32.5123 15.2713 32.5122C15.3371 32.4818 15.4024 32.4515 15.4672 32.4215C16.463 31.9597 17.3556 31.5458 18.3338 31.5458C19.3119 31.5458 20.2046 31.9597 21.2003 32.4215C21.2647 32.4513 21.3296 32.4814 21.3949 32.5116C21.3957 32.512 21.3965 32.5123 21.3973 32.5127L22.4886 33.0136L22.4903 33.0143C24.6485 34.0081 26.1068 34.6751 27.2006 34.9887C28.2753 35.2968 28.5593 35.1332 28.6921 35.0323L28.6931 35.0316C28.8502 34.9124 29.1021 34.6274 29.1555 33.4292C29.209 32.2288 29.0509 30.5578 28.8143 28.1112L14.4243 6.97857ZM14.4243 6.97857C15.6103 4.85195 16.4199 3.4076 17.1349 2.47403C17.849 1.54154 18.185 1.5 18.3338 1.5C18.4826 1.5 18.8185 1.54154 19.5326 2.47403C20.2476 3.4076 21.0573 4.85195 22.2432 6.97857L22.2433 6.97873M14.4243 6.97857L22.2433 6.97873M22.2433 6.97873L22.8443 8.05618M22.2433 6.97873L22.8443 8.05618M22.8443 8.05618C22.8444 8.05637 22.8445 8.05655 22.8446 8.05673M22.8443 8.05618L22.8446 8.05673M22.8446 8.05673C22.8822 8.12408 22.9193 8.19092 22.9561 8.2572M22.8446 8.05673L22.9561 8.2572M22.9561 8.2572C23.5023 9.24098 23.98 10.1012 24.7498 10.6868M22.9561 8.2572L24.7498 10.6868M24.7498 10.6868C25.53 11.2803 26.4827 11.4937 27.5478 11.7322M24.7498 10.6868L27.5478 11.7322M27.5478 11.7322C27.6197 11.7483 27.6921 11.7645 27.765 11.781L27.5478 11.7322ZM28.6933 26.87L28.8142 28.11L27.766 11.7812L28.931 12.045C31.2371 12.5671 32.7911 12.9232 33.8522 13.3415C34.8839 13.7482 35.0624 14.0658 35.1303 14.2834C35.2024 14.5159 35.2276 14.9128 34.6091 15.8955C33.9802 16.8946 32.9166 18.1448 31.3476 19.9796C31.3474 19.9797 31.3473 19.9799 31.3471 19.9801L30.5519 20.9091L30.5511 20.91C30.5016 20.9679 30.4525 21.0252 30.4039 21.0819C29.6747 21.9326 29.0418 22.6709 28.7521 23.6023L28.7518 23.6035C28.4637 24.5321 28.5595 25.5062 28.6716 26.6472C28.6788 26.7205 28.686 26.7945 28.6933 26.8692L28.6933 26.87Z" stroke="#EBCB21" stroke-width="3"/>
</svg>
