<svg width="37" height="37" viewBox="0 0 37 37" fill="none" xmlns="http://www.w3.org/2000/svg">
<path d="M13.1143 6.248C15.4371 2.08267 16.5976 0 18.3338 0C20.0699 0 21.2304 2.08267 23.5533 6.248L24.1546 7.326C24.8146 8.51033 25.1446 9.1025 25.6579 9.493C26.1713 9.8835 26.8129 10.0283 28.0963 10.318L29.2623 10.582C33.7723 11.6032 36.0254 12.1128 36.5626 13.838C37.0979 15.5613 35.5616 17.3598 32.4871 20.955L31.6914 21.8845C30.8188 22.9057 30.3806 23.4172 30.1844 24.0478C29.9883 24.6803 30.0543 25.3623 30.1863 26.7245L30.3073 27.9657C30.7711 32.7635 31.0039 35.1615 29.5996 36.2267C28.1953 37.2937 26.0833 36.3202 21.8629 34.3768L20.7684 33.8745C19.5694 33.3208 18.9699 33.0458 18.3338 33.0458C17.6976 33.0458 17.0981 33.3208 15.8991 33.8745L14.8064 34.3768C10.5843 36.3202 8.47226 37.2918 7.06976 36.2285C5.6636 35.1615 5.89643 32.7635 6.36026 27.9657L6.48126 26.7263C6.61326 25.3623 6.67926 24.6803 6.48126 24.0497C6.28693 23.4172 5.84876 22.9057 4.9761 21.8863L4.18043 20.955C1.10593 17.3617 -0.430403 15.5632 0.104931 13.838C0.642098 12.1128 2.8971 11.6013 7.4071 10.582L8.5731 10.318C9.8546 10.0283 10.4944 9.8835 11.0096 9.493C11.5229 9.1025 11.8529 8.51033 12.5129 7.326L13.1143 6.248Z" fill="#EBCB21"/>
</svg>
